PathFileType	3	(X/Y/Z)	walking_3__fused_aligned.trc
DataRate	CameraRate	NumFrames	NumMarkers	Units	OrigDataRate	OrigDataStartFrame	OrigNumFrames
100.0	100.0	9	19	mm	100.0	4208	6307
Frame#	Time	pelvis			neck			head			hip_left			hip_right			knee_left			knee_right			ankle_left			ankle_right			heel_left			heel_right			toe_left			toe_right			shoulder_left			shoulder_right			elbow_left			elbow_right			wrist_left			wrist_right			
		X1	Y1	Z1	X2	Y2	Z2	X3	Y3	Z3	X4	Y4	Z4	X5	Y5	Z5	X6	Y6	Z6	X7	Y7	Z7	X8	Y8	Z8	X9	Y9	Z9	X10	Y10	Z10	X11	Y11	Z11	X12	Y12	Z12	X13	Y13	Z13	X14	Y14	Z14	X15	Y15	Z15	X16	Y16	Z16	X17	Y17	Z17	X18	Y18	Z18	X19	Y19	Z19	
4208	42.07000	43.801391	929.801157	107.996570	3.652283	1484.769102	227.448152	-15.579196	1559.531702	379.232505	121.858299	933.127400	102.787981	-34.255482	926.474863	113.205302	145.136153	482.974549	46.636716	-75.325053	551.582590	379.164287	126.771278	162.994404	-214.865851	-104.134548	137.536207	392.959790	119.236581	141.343578	-266.588984	-106.265361	84.781488	365.715114	132.900198	18.582895	-105.132582	-105.887854	100.012376	583.773832	190.237343	1452.224670	208.401332	-160.500706	1423.092319	160.218244	291.068640	1174.027618	197.105843	-213.775531	1150.580320	39.795218	296.938992	951.157393	350.913021	-297.507605	886.951258	-20.618836
4209	42.08000	42.015090	930.043180	108.873429	1.560720	1484.894357	228.434214	-17.434211	1559.412398	380.284060	120.157001	933.265336	103.693986	-36.126802	926.820980	114.053001	144.394962	484.305260	52.010058	-76.514227	550.296710	376.225505	125.884007	166.874926	-215.040898	-104.459523	134.260544	392.986180	118.309964	146.082671	-267.316288	-106.537944	80.881260	366.018959	131.882665	19.652939	-107.657967	-106.329122	98.231047	585.618184	188.007493	1452.763202	208.766427	-162.633277	1423.030425	161.779980	289.053864	1174.544860	197.220315	-216.244529	1150.416069	41.741822	295.632047	951.683076	351.175181	-300.133840	887.004427	-17.986767
4210	42.09000	40.228790	930.285203	109.750289	-0.530843	1485.019612	229.420277	-19.289227	1559.293094	381.335616	118.455703	933.403273	104.599991	-37.998123	927.167097	114.900699	143.653771	485.635970	57.383400	-77.703400	549.010830	373.286722	124.996737	170.755448	-215.215945	-104.784498	130.984881	393.012570	117.383348	150.821764	-268.043592	-106.810528	76.981032	366.322804	130.865131	20.722982	-110.183353	-106.770390	96.449718	587.462536	185.777643	1453.301735	209.131522	-164.765848	1422.968532	163.341717	287.039088	1175.062102	197.334786	-218.713527	1150.251818	43.688426	294.325103	952.208759	351.437341	-302.760076	887.057595	-15.354699
4211	42.10000	38.442489	930.527226	110.627148	-2.622406	1485.144868	230.406339	-21.144242	1559.173789	382.387171	116.754404	933.541209	105.505995	-39.869443	927.513214	115.748397	142.912580	486.966681	62.756743	-78.892574	547.724950	370.347939	124.109467	174.635970	-215.390991	-105.109473	127.709219	393.038960	116.456732	155.560856	-268.770896	-107.083112	73.080804	366.626648	129.847598	21.793026	-112.708738	-107.211658	94.668388	589.306888	183.547793	1453.840267	209.496618	-166.898419	1422.906638	164.903453	285.024312	1175.579344	197.449258	-221.182526	1150.087567	45.635030	293.018159	952.734442	351.699500	-305.386312	887.110763	-12.722631
4212	42.11000	36.656189	930.769249	111.504008	-4.713969	1485.270123	231.392401	-22.999257	1559.054485	383.438727	115.053106	933.679145	106.412000	-41.740763	927.859331	116.596096	142.171388	488.297391	68.130085	-80.081748	546.439070	367.409156	123.222196	178.516492	-215.566038	-105.434448	124.433556	393.065350	115.530116	160.299949	-269.498200	-107.355695	69.180575	366.930493	128.830065	22.863069	-115.234123	-107.652926	92.887059	591.151240	181.317943	1454.378800	209.861713	-169.030990	1422.844745	166.465190	283.009536	1176.096586	197.563729	-223.651524	1149.923316	47.581633	291.711214	953.260125	351.961660	-308.012547	887.163931	-10.090563
4213	42.12000	34.869888	931.011272	112.380867	-6.805532	1485.395378	232.378463	-24.854272	1558.935180	384.490282	113.351808	933.817082	107.318005	-43.612084	928.205448	117.443794	141.430197	489.628102	73.503427	-81.270922	545.153190	364.470374	122.334926	182.397014	-215.741085	-105.759424	121.157894	393.091740	114.603500	165.039042	-270.225503	-107.628279	65.280347	367.234338	127.812532	23.933113	-117.759509	-108.094194	91.105729	592.995592	179.088093	1454.917333	210.226809	-171.163560	1422.782851	168.026926	280.994760	1176.613828	197.678201	-226.120522	1149.759065	49.528237	290.404270	953.785808	352.223820	-310.638783	887.217100	-7.458495
4214	42.13000	33.083588	931.253295	113.257727	-8.897095	1485.520634	233.364526	-26.709287	1558.815876	385.541838	111.650510	933.955018	108.224009	-45.483404	928.551565	118.291492	140.689006	490.958812	78.876770	-82.460096	543.867310	361.531591	121.447655	186.277536	-215.916132	-106.084399	117.882231	393.118129	113.676884	169.778134	-270.952807	-107.900863	61.380119	367.538183	126.794999	25.003156	-120.284894	-108.535462	89.324400	594.839944	176.858243	1455.455865	210.591904	-173.296131	1422.720958	169.588663	278.979984	1177.131070	197.792672	-228.589520	1149.594814	51.474841	289.097326	954.311491	352.485980	-313.265018	887.270268	-4.826427
4215	42.14000	31.297287	931.495318	114.134586	-10.988658	1485.645889	234.350588	-28.564303	1558.696572	386.593394	109.949211	934.092955	109.130014	-47.354724	928.897682	119.139191	139.947815	492.289523	84.250112	-83.649270	542.581430	358.592808	120.560385	190.158058	-216.091179	-106.409374	114.606569	393.144519	112.750268	174.517227	-271.680111	-108.173446	57.479891	367.842028	125.777466	26.073200	-122.810280	-108.976730	87.543070	596.684296	174.628393	1455.994398	210.957000	-175.428702	1422.659065	171.150399	276.965208	1177.648312	197.907143	-231.058518	1149.430563	53.421445	287.790381	954.837174	352.748140	-315.891254	887.323436	-2.194358
4216	42.15000	29.510986	931.737342	115.011446	-13.080221	1485.771144	235.336650	-30.419318	1558.577267	387.644949	108.247913	934.230891	110.036019	-49.226045	929.243798	119.986889	139.206623	493.620234	89.623454	-84.838444	541.295551	355.654026	119.673114	194.038580	-216.266225	-106.734349	111.330906	393.170909	111.823651	179.256320	-272.407415	-108.446030	53.579663	368.145873	124.759933	27.143243	-125.335665	-109.417998	85.761741	598.528648	172.398542	1456.532931	211.322095	-177.561273	1422.597171	172.712136	274.950432	1178.165554	198.021615	-233.527516	1149.266312	55.368049	286.483437	955.362857	353.010299	-318.517490	887.376605	0.437710
